<svg id="Layer_1" data-name="Layer 1" xmlns="http://www.w3.org/2000/svg" xmlns:xlink="http://www.w3.org/1999/xlink" viewBox="0 0 368.02 290.39"><defs><style>.cls-1,.cls-10,.cls-2,.cls-3{fill:#231f20;}.cls-1,.cls-11,.cls-12,.cls-13,.cls-14,.cls-15,.cls-16,.cls-17,.cls-18,.cls-19,.cls-2,.cls-20,.cls-23,.cls-24,.cls-25,.cls-26,.cls-27,.cls-3,.cls-4,.cls-5,.cls-6,.cls-7,.cls-8,.cls-9{stroke:#231f20;}.cls-1,.cls-2,.cls-21,.cls-23,.cls-24,.cls-25,.cls-26,.cls-27,.cls-8{stroke-miterlimit:10;}.cls-1,.cls-21,.cls-23,.cls-24,.cls-25,.cls-26,.cls-27,.cls-4,.cls-5,.cls-6,.cls-7,.cls-8,.cls-9{stroke-width:2px;}.cls-4{fill:url(#New_Gradient_Swatch);}.cls-5{fill:url(#New_Gradient_Swatch-2);}.cls-6{fill:url(#New_Gradient_Swatch-3);}.cls-7{fill:url(#New_Gradient_Swatch-4);}.cls-8{fill:url(#New_Gradient_Swatch-5);}.cls-9{fill:url(#New_Gradient_Swatch-6);}.cls-11{fill:url(#linear-gradient);}.cls-12{fill:url(#linear-gradient-2);}.cls-13{fill:url(#linear-gradient-3);}.cls-14{fill:url(#linear-gradient-4);}.cls-15{fill:url(#linear-gradient-5);}.cls-16{fill:url(#linear-gradient-6);}.cls-17{fill:url(#linear-gradient-7);}.cls-18{fill:url(#linear-gradient-8);}.cls-19{fill:url(#linear-gradient-9);}.cls-20{fill:url(#linear-gradient-10);}.cls-21{fill:#fff;stroke:#ed1c24;}.cls-22{fill:#ed1c24;}.cls-23{fill:url(#linear-gradient-11);}.cls-24{fill:url(#linear-gradient-12);}.cls-25{fill:url(#linear-gradient-13);}.cls-26{fill:url(#linear-gradient-14);}.cls-27{fill:url(#linear-gradient-15);}</style><linearGradient id="New_Gradient_Swatch" x1="457.74" y1="274.74" x2="457.74" y2="170.9" gradientUnits="userSpaceOnUse"><stop offset="0" stop-color="#fff"/><stop offset="0.11" stop-color="#fff9fa"/><stop offset="0.25" stop-color="#fde9ea"/><stop offset="0.42" stop-color="#fbced1"/><stop offset="0.59" stop-color="#f8a8ae"/><stop offset="0.78" stop-color="#f47881"/><stop offset="0.97" stop-color="#ef3e4a"/><stop offset="1" stop-color="#ee3542"/></linearGradient><linearGradient id="New_Gradient_Swatch-2" x1="534.72" y1="274.74" x2="534.72" y2="170.9" xlink:href="#New_Gradient_Swatch"/><linearGradient id="New_Gradient_Swatch-3" x1="605.27" y1="274.74" x2="605.27" y2="170.9" xlink:href="#New_Gradient_Swatch"/><linearGradient id="New_Gradient_Swatch-4" x1="651.92" y1="274.74" x2="651.92" y2="170.9" xlink:href="#New_Gradient_Swatch"/><linearGradient id="New_Gradient_Swatch-5" x1="689.26" y1="274.74" x2="689.26" y2="170.9" xlink:href="#New_Gradient_Swatch"/><linearGradient id="New_Gradient_Swatch-6" x1="705.95" y1="274.74" x2="705.95" y2="170.9" xlink:href="#New_Gradient_Swatch"/><linearGradient id="linear-gradient" x1="426.15" y1="173.46" x2="420.76" y2="103.95" gradientUnits="userSpaceOnUse"><stop offset="0" stop-color="#fff"/><stop offset="1" stop-color="#e70788"/></linearGradient><linearGradient id="linear-gradient-2" x1="469.86" y1="170.08" x2="464.48" y2="100.56" xlink:href="#linear-gradient"/><linearGradient id="linear-gradient-3" x1="494.59" y1="168.16" x2="489.2" y2="98.65" xlink:href="#linear-gradient"/><linearGradient id="linear-gradient-4" x1="518.45" y1="166.31" x2="513.06" y2="96.8" xlink:href="#linear-gradient"/><linearGradient id="linear-gradient-5" x1="531.06" y1="165.34" x2="525.67" y2="95.82" xlink:href="#linear-gradient"/><linearGradient id="linear-gradient-6" x1="539.53" y1="164.68" x2="534.15" y2="95.17" xlink:href="#linear-gradient"/><linearGradient id="linear-gradient-7" x1="560.13" y1="163.08" x2="554.75" y2="93.57" xlink:href="#linear-gradient"/><linearGradient id="linear-gradient-8" x1="569.74" y1="162.34" x2="564.35" y2="92.83" xlink:href="#linear-gradient"/><linearGradient id="linear-gradient-9" x1="581.91" y1="161.4" x2="576.53" y2="91.88" xlink:href="#linear-gradient"/><linearGradient id="linear-gradient-10" x1="590.25" y1="160.75" x2="584.86" y2="91.24" xlink:href="#linear-gradient"/><linearGradient id="linear-gradient-11" x1="595.71" y1="409.88" x2="595.71" y2="368.45" gradientUnits="userSpaceOnUse"><stop offset="0" stop-color="#fff"/><stop offset="0.37" stop-color="#fdfefe"/><stop offset="0.51" stop-color="#f6f9fc"/><stop offset="0.6" stop-color="#ebf2f7"/><stop offset="0.68" stop-color="#dae7f1"/><stop offset="0.75" stop-color="#c4d9e8"/><stop offset="0.8" stop-color="#a8c8de"/><stop offset="0.86" stop-color="#88b3d1"/><stop offset="0.91" stop-color="#629bc3"/><stop offset="0.95" stop-color="#377fb2"/><stop offset="0.99" stop-color="#0962a1"/><stop offset="1" stop-color="#005c9d"/></linearGradient><linearGradient id="linear-gradient-12" x1="627.39" y1="409.88" x2="627.39" y2="368.45" xlink:href="#linear-gradient-11"/><linearGradient id="linear-gradient-13" x1="661.58" y1="409.88" x2="661.58" y2="368.45" xlink:href="#linear-gradient-11"/><linearGradient id="linear-gradient-14" x1="687.21" y1="409.88" x2="687.21" y2="368.45" xlink:href="#linear-gradient-11"/><linearGradient id="linear-gradient-15" x1="716.26" y1="409.88" x2="716.26" y2="368.45" xlink:href="#linear-gradient-11"/></defs><title>JOJOsvg</title><path class="cls-1" d="M603.34,397l6.37,1.15q-1.92,6.51-5.66,9.75a12.9,12.9,0,0,1-8.69,3.24,10.64,10.64,0,0,1-8.76-4c-2.15-2.7-3.23-6.73-3.23-12.12a29.67,29.67,0,0,1,2.35-12.2,18.51,18.51,0,0,1,6-7.85,13.44,13.44,0,0,1,7.89-2.57,10.89,10.89,0,0,1,8,3.15c2.12,2.09,3.37,5.1,3.74,9l-6.06.72a8.46,8.46,0,0,0-2-4.81,5.2,5.2,0,0,0-3.78-1.41,7.3,7.3,0,0,0-4.57,1.72,13,13,0,0,0-3.74,5.74,24.53,24.53,0,0,0-1.55,8.86q0,4.53,1.79,6.94a5.27,5.27,0,0,0,4.34,2.42,6.49,6.49,0,0,0,4.49-1.91A11.72,11.72,0,0,0,603.34,397Z" transform="translate(-377.46 -121.72)"/><path class="cls-1" d="M614.06,395.75a32.57,32.57,0,0,1,1.64-10q2.07-6.6,6.13-10a14.24,14.24,0,0,1,9.42-3.41,11.49,11.49,0,0,1,9.14,4.22q3.58,4.21,3.59,11.5a28.77,28.77,0,0,1-2.57,12.17,19.9,19.9,0,0,1-6.38,8.23,14.36,14.36,0,0,1-8.39,2.65,10.83,10.83,0,0,1-8.72-3.83A17.17,17.17,0,0,1,614.06,395.75Zm6.26-.15a10,10,0,0,0,2,6.6,6.17,6.17,0,0,0,4.95,2.47,7.39,7.39,0,0,0,4.65-1.84,14.52,14.52,0,0,0,4-6,22.49,22.49,0,0,0,1.71-8.55,11.07,11.07,0,0,0-2.1-7.15,5.88,5.88,0,0,0-4.84-2.3,7.63,7.63,0,0,0-4.75,1.86,14.22,14.22,0,0,0-4,6A23.92,23.92,0,0,0,620.32,395.6Z" transform="translate(-377.46 -121.72)"/><path class="cls-1" d="M660.9,410.47h-6.76L648.61,373h6.32l3.92,28.36L671.57,373h6.25Z" transform="translate(-377.46 -121.72)"/><path class="cls-1" d="M674.24,410.47,680.66,373h22.79l-1.08,6.27H685.92l-1.47,8.51h15.93L699.3,394H683.37l-1.75,10.18H699.3l-1,6.26Z" transform="translate(-377.46 -121.72)"/><path class="cls-1" d="M709.24,410.47h-6.31L709.35,373H723a12.33,12.33,0,0,1,5.65,1,7.31,7.31,0,0,1,3,3.22,12,12,0,0,1,1.17,5.62,12.33,12.33,0,0,1-2.44,8,10.83,10.83,0,0,1-7,3.72,16.6,16.6,0,0,1,2.51,4,107.55,107.55,0,0,1,4.48,11.94h-6.8c-.27-1.05-1.19-3.93-2.74-8.62a21.79,21.79,0,0,0-2.25-5.09,4.44,4.44,0,0,0-1.51-1.43,6.44,6.44,0,0,0-2.6-.38h-2.58Zm3.64-21.15h3.33a22.46,22.46,0,0,0,6.43-.6,5.69,5.69,0,0,0,2.79-2.21,6.12,6.12,0,0,0,1.11-3.55,3.5,3.5,0,0,0-1.41-3.1c-.54-.41-1.74-.61-3.58-.61h-6.94Z" transform="translate(-377.46 -121.72)"/><path class="cls-2" d="M701.22,181.22l.06-.08c1.5,7.15-2.69,13-10,18.19,2.07-3.06,3.67-6.15,4.06-7.94a8.71,8.71,0,1,1,5.57-11.28A9.2,9.2,0,0,1,701.22,181.22Z" transform="translate(-377.46 -121.72)"/><path class="cls-3" d="M429.4,218.19l11.1-36.64c28.29-12.4,62.22-18.14,99.1-20.39l-6.71,21.42-16.26,3.09-22.71,77.94c-2.8,8.92-10,16.4-17.55,21.92L383,353.93,419.6,245.8c16.65-9,33.12-17.72,45.16-20.64l-7,21.68h0A34.11,34.11,0,0,0,481.05,223l8-29.8C464.66,201.43,442.54,209.74,429.4,218.19Z" transform="translate(-377.46 -121.72)"/><path class="cls-3" d="M554.74,183.81c-16.23-1.61-35,11.19-39.69,28.16L504.94,248.7c-4.11,14.94,7.29,23.3,23.45,19.6,14.41-3.3,28.28-15.36,32.44-27.58l10.11-29.66a26,26,0,0,0,1.47-8.42C572.41,192.77,566,184.92,554.74,183.81Zm-4.35,19L535.7,251.83a4.55,4.55,0,1,1-8.72-2.61l14.69-49.06a4.55,4.55,0,0,1,8.91,1.31A4.5,4.5,0,0,1,550.39,202.77Z" transform="translate(-377.46 -121.72)"/><path class="cls-3" d="M584.5,183.67,592,161.16c15.69-3.46,39.07-2.06,63.49,0l-6.2,22.51-10.71-1-15.3,48.42a33.7,33.7,0,0,1-27.69,23.15l-33.44,4.43,16.18-57.55,21.16-.26-4.91,18.32,1.43-.1a13.7,13.7,0,0,0,12.09-9.54c3.43-10.87,8.94-27.78,8.94-27.78C607.66,180.52,596.44,181.63,584.5,183.67Z" transform="translate(-377.46 -121.72)"/><path class="cls-3" d="M678.61,200a14.86,14.86,0,0,0-7.74-3.85c-12.33-2.26-27.72-3.19-35.24,19.1l-5.21,18.55c-6.95,19,8,22.15,22,20.44l4.09-1.3c11.49-3.67,18.32-10.47,21.67-25.95l3.48-12.12C683,207.63,682.09,203.38,678.61,200ZM666,208,655.49,243.2a3.61,3.61,0,1,1-6.92-2.07L659.1,206a3.62,3.62,0,0,1,7.08,1A3.67,3.67,0,0,1,666,208Z" transform="translate(-377.46 -121.72)"/><path class="cls-3" d="M714.76,219.53c-5.74-1.48-11.4-2.37-10.74-5.54.41-2.24,3.15-3.25,7.56-2.76a17.58,17.58,0,0,1,10.4,4.71l4.88-7.42c-3.41-3.06-8.66-6.12-16.81-6.1-9.64,0-17.19,4-17.16,13.27,0,9.06,7.51,11.2,14.58,12.92,5.57,1.23,9.15,2.06,8.91,5.21-.24,3-3.81,4.09-8,3.77a18.69,18.69,0,0,1-11.9-5.62L691,239.55a29.93,29.93,0,0,0,19.39,7.18c11.39,0,17.69-5.46,17.67-14C728,224,721.5,221.34,714.76,219.53Z" transform="translate(-377.46 -121.72)"/><path class="cls-4" d="M425.87,214.61,437,178c28.29-12.39,62.21-18.13,99.09-20.39L529.35,179l-16.25,3.1L490.39,260c-2.8,8.92-10,16.4-17.55,21.92l-93.42,68.4,36.64-108.12c16.66-9,33.13-17.73,45.17-20.65l-7,21.68h0a34.1,34.1,0,0,0,23.26-23.88l8-29.8C461.13,197.85,439,206.16,425.87,214.61Z" transform="translate(-377.46 -121.72)"/><path class="cls-5" d="M551.2,180.22c-16.22-1.6-35,11.19-39.68,28.16l-10.11,36.74c-4.12,14.94,7.28,23.3,23.44,19.6,14.41-3.31,28.28-15.37,32.44-27.58l10.12-29.66a26,26,0,0,0,1.46-8.42C568.87,189.18,562.43,181.34,551.2,180.22Zm-4.35,19-14.69,49.06a4.55,4.55,0,0,1-8.72-2.61l14.69-49.06a4.55,4.55,0,0,1,8.91,1.3A4.61,4.61,0,0,1,546.85,199.19Z" transform="translate(-377.46 -121.72)"/><path class="cls-6" d="M581,180.09l7.48-22.51c15.68-3.46,39.07-2.05,63.49,0l-6.2,22.51-10.71-1-15.3,48.42A33.73,33.73,0,0,1,592,250.71l-33.44,4.42,16.17-57.55,21.17-.26L591,215.65l1.43-.11A13.69,13.69,0,0,0,604.54,206c3.43-10.87,8.94-27.77,8.94-27.77C604.13,176.94,592.91,178.05,581,180.09Z" transform="translate(-377.46 -121.72)"/><path class="cls-7" d="M675.08,196.4a14.86,14.86,0,0,0-7.75-3.85c-12.32-2.26-27.72-3.19-35.24,19.1l-5.2,18.55c-6.95,19,8,22.15,22,20.44l4.09-1.31c11.49-3.66,18.32-10.46,21.68-25.94l3.48-12.12C679.45,204.05,678.55,199.8,675.08,196.4Zm-12.59,8L652,239.62a3.62,3.62,0,0,1-6.93-2.07l10.54-35.18a3.61,3.61,0,0,1,7.07,1A3.74,3.74,0,0,1,662.49,204.44Z" transform="translate(-377.46 -121.72)"/><path class="cls-8" d="M697.69,177.64l.06-.08c1.5,7.15-2.69,13-10,18.19,2.07-3.05,3.67-6.15,4.06-7.94a8.71,8.71,0,1,1,5.56-11.28A8.11,8.11,0,0,1,697.69,177.64Z" transform="translate(-377.46 -121.72)"/><path class="cls-9" d="M687.43,236l5.46-7.58a18.69,18.69,0,0,0,11.9,5.62c4.24.32,7.81-.77,8.06-3.77.23-3.16-3.34-4-8.91-5.21-7.08-1.72-14.56-3.86-14.59-12.92,0-9.31,7.52-13.24,17.17-13.27a24.06,24.06,0,0,1,16.81,6.1l-4.89,7.41a17.58,17.58,0,0,0-10.4-4.7c-4.41-.49-7.15.52-7.56,2.76-.65,3.16,5,4.06,10.74,5.54,6.74,1.81,13.23,4.45,13.26,13.18,0,8.56-6.28,14-17.66,14A29.88,29.88,0,0,1,687.43,236Z" transform="translate(-377.46 -121.72)"/><path class="cls-10" d="M393.58,133.68c5.53-.68,11.06-1.41,16.53-2.35-1.27,10.58-2.78,21.22-3.22,31.9.22,0,.45-.08.68-.14,3.62-11.26,7.71-22.36,12.15-33.36q7.48-1.17,15-2.19c.06,9.54-.27,19.07-.41,28.59L435,156c2.68-9.88,5.53-19.72,8.45-29.54q6.9-.74,13.82-1.31-8,21.32-15.94,42.67c-5.95,1.62-11.86,3.31-17.71,5.14.06-9.8.41-19.6.82-29.38l-.49.1c-3.77,10.68-7.38,21.45-10.27,32.39q-9.37,2.6-18.81,5C394.53,165.28,393.92,149.48,393.58,133.68Z" transform="translate(-377.46 -121.72)"/><path class="cls-10" d="M459.05,125.1c3.78-.23,7.57-.41,11.36-.6-.84,4.53-1.75,9.08-2.47,13.63l7.78-.65c.88-4.44,1.64-8.9,2.59-13.32,3.16-.09,6.33-.16,9.51-.19-2.28,11.62-4.05,23.31-5.95,35-3.31.56-6.6,1.15-9.9,1.75a134.13,134.13,0,0,0,2.54-14.18q-4,.47-8,1c-1,5-2,9.89-3.06,14.83-4.17.88-8.37,1.69-12.48,2.76C453.53,151.78,456.56,138.49,459.05,125.1Z" transform="translate(-377.46 -121.72)"/><path class="cls-10" d="M498.09,151c-1.64.19-3.26.41-4.89.62-.59,1.94-1.18,3.86-1.72,5.81-3.09.5-6.18,1-9.26,1.52,4.22-11.78,8.43-23.51,13.26-35.07,3.45,0,6.9.11,10.35.18-.15,10.41-.22,20.79.15,31.22-2.66.35-5.3.76-8,1.13Zm0-16c-.64,2-2,6.54-2.69,9a24.64,24.64,0,0,0,2.94-.25c.16-2.44.58-6.88.75-8.84s.09-1.41.21-2.88c-.07.06-.15.07-.2,0C498.65,133.51,498.78,133,498.13,134.94Z" transform="translate(-377.46 -121.72)"/><path class="cls-10" d="M513.32,131.43l-5.36-.07c.54-2.4,1.14-4.79,1.69-7.18,5.84.25,11.66.74,17.5,1.22-.58,2.17-1.19,4.34-1.77,6.51-1.64-.12-3.28-.21-4.91-.29-1.93,7.42-3.51,14.87-4.76,22.44-2.34.25-4.67.55-7,.84C510,147,511.46,139.19,513.32,131.43Z" transform="translate(-377.46 -121.72)"/><path class="cls-10" d="M535.39,126.36c-.69,2.45-1.47,4.88-2.17,7.33-1.92,2.11-3.74,4.28-5.58,6.45-1,0-1.92-.12-2.88-.21q2.18-3.31,4.39-6.62c-1-.08-1.92-.16-2.88-.22.66-2.53,1.34-5.06,2.06-7.57Z" transform="translate(-377.46 -121.72)"/><path class="cls-10" d="M530,147.77c1.66-1.55,3.34-3,5.07-4.47,0,1.13.19,4.08,2,4.12,1,0,1.45-.55,1.61-1.65.26-1.8-.39-2.18-2.12-4.14a8.13,8.13,0,0,1-1.86-8.07c1.22-3.31,3.86-7,8.68-6.34,2.79.35,3.88,2.54,4.79,4.68-1.4,1.27-2.76,2.51-4.19,3.74-.06-.93-1-2.6-1.95-2.67s-1.43.16-1.51,1c-.18,1.91,1.3,2.32,2.72,4.28a8.25,8.25,0,0,1,.88,7.66c-1.21,3.29-3.69,8-8.48,8.17C531.53,154.23,530.54,150.74,530,147.77Z" transform="translate(-377.46 -121.72)"/><path class="cls-10" d="M554.92,144.21c.56-4.12,0-10.35.2-14.88,1.72.17,3.51.49,5.25.72-.35,2.83-.72,5.65-1.08,8.47,1.39-2.71,2.76-5.42,4.14-8.13,1.53.19,3.15.3,4.63.54-2.31,4.18-6.33,9.77-8.26,13.61s-1.72,6-3.17,9.47c-1.46,0-3.11,0-4.59.12C552.74,150.38,554.35,148.34,554.92,144.21Z" transform="translate(-377.46 -121.72)"/><path class="cls-10" d="M563.94,142.13c1.14-3.3,3.75-11.6,9.29-10.74s3.47,8,2.33,11.45-3.41,11.21-9.21,11S562.81,145.43,563.94,142.13Zm7.54.48c.32-1.05,2.27-5.64.26-5.94s-3,4.69-3.26,5.68-2.26,5.7-.22,5.87S571.16,143.67,571.48,142.61Z" transform="translate(-377.46 -121.72)"/><path class="cls-10" d="M576,145.53c.78-2.6,2.89-9.89,3.89-13.27a21.06,21.06,0,0,1,3.49.32L579.48,146c-.42,1.46-.65,2.16.46,2.24s1.4-.66,1.84-2.15c1.11-3.79,2.6-9.1,3.79-13.23a24.63,24.63,0,0,1,3.22.4c-1,3.31-2.65,9.74-3.54,12.45-1.32,4-2.41,7.86-6.9,7.86S574.86,149.23,576,145.53Z" transform="translate(-377.46 -121.72)"/><path class="cls-10" d="M590,133.26c1.92.45,2.82,0,5,.64s1.88,4.17,1.11,6.23c-.4,1.08-1.28,3.85-2.55,4.85-.11,2.76-.2,5.39-.29,8.09l-3.23.1c.17-2.48.35-5,.52-7.44l-.83,0q-1,3.76-2.08,7.53l-3.23.09C586.27,146.63,588.19,140,590,133.26Zm1.71,8.17c1.1,0,1.41-.78,1.62-1.56s.34-1.39-.68-1.59c-.23-.05-.61,0-.86-.07-.3,1.06-.59,2.12-.88,3.18C591.16,141.4,591.51,141.43,591.72,141.43Z" transform="translate(-377.46 -121.72)"/><path class="cls-11" d="M392,132.07c5.53-.68,11.06-1.41,16.53-2.35-1.27,10.59-2.78,21.22-3.22,31.9.22-.05.45-.08.67-.14,3.63-11.26,7.72-22.36,12.16-33.36q7.49-1.17,15-2.19c.06,9.54-.27,19.07-.41,28.59l.68-.16c2.68-9.88,5.53-19.72,8.45-29.54q6.9-.73,13.82-1.31-8,21.31-15.94,42.67c-5.95,1.62-11.86,3.31-17.71,5.15.06-9.81.41-19.61.81-29.39l-.48.1c-3.77,10.68-7.38,21.45-10.27,32.39q-9.37,2.59-18.81,5C392.9,163.67,392.29,147.87,392,132.07Z" transform="translate(-377.46 -121.72)"/><path class="cls-12" d="M457.42,123.49c3.78-.23,7.57-.41,11.35-.6-.84,4.53-1.74,9.08-2.46,13.63l7.78-.65c.88-4.44,1.64-8.9,2.58-13.32,3.17-.09,6.34-.16,9.52-.19-2.28,11.62-4.05,23.31-5.95,35-3.31.56-6.6,1.15-9.9,1.75a134.13,134.13,0,0,0,2.54-14.18q-4,.47-8,1c-1,4.95-2,9.89-3.06,14.83-4.18.88-8.37,1.69-12.48,2.76C451.9,150.17,454.93,136.88,457.42,123.49Z" transform="translate(-377.46 -121.72)"/><path class="cls-13" d="M496.46,149.35c-1.64.19-3.26.41-4.89.63-.59,1.93-1.18,3.86-1.73,5.8-3.08.5-6.17,1-9.25,1.52,4.22-11.78,8.43-23.51,13.26-35.07,3.45,0,6.9.11,10.35.18-.15,10.41-.22,20.79.14,31.22-2.65.35-5.29.76-7.95,1.13C496.42,153,496.44,151.15,496.46,149.35Zm0-16c-.64,2-2,6.54-2.69,9a24.82,24.82,0,0,0,2.94-.25c.16-2.44.57-6.88.75-8.84s.09-1.41.21-2.88c-.07.06-.16.07-.2,0C497,131.9,497.15,131.34,496.5,133.33Z" transform="translate(-377.46 -121.72)"/><path class="cls-14" d="M511.69,129.82l-5.36-.07c.54-2.4,1.14-4.79,1.69-7.18,5.84.25,11.66.74,17.5,1.22-.58,2.17-1.2,4.34-1.77,6.52-1.64-.13-3.28-.22-4.92-.3-1.92,7.42-3.5,14.87-4.75,22.44-2.34.25-4.67.55-7,.84C508.35,145.41,509.83,137.58,511.69,129.82Z" transform="translate(-377.46 -121.72)"/><path class="cls-15" d="M533.75,124.75c-.69,2.45-1.46,4.88-2.16,7.33-1.92,2.11-3.75,4.29-5.58,6.46-1,0-1.92-.13-2.88-.22q2.18-3.31,4.39-6.62l-2.88-.22c.66-2.53,1.34-5.06,2.06-7.57Z" transform="translate(-377.46 -121.72)"/><path class="cls-16" d="M528.39,146.16c1.66-1.55,3.35-3,5.07-4.47,0,1.13.2,4.08,2,4.12,1,0,1.45-.55,1.61-1.65.25-1.8-.39-2.18-2.12-4.14a8.13,8.13,0,0,1-1.86-8.07c1.22-3.31,3.86-6.95,8.68-6.34,2.79.35,3.88,2.54,4.78,4.68-1.39,1.27-2.75,2.51-4.18,3.74-.06-.93-1-2.6-1.95-2.67s-1.43.16-1.51,1c-.18,1.91,1.3,2.32,2.72,4.28a8.25,8.25,0,0,1,.88,7.66c-1.21,3.29-3.69,8-8.49,8.17C529.9,152.62,528.9,149.13,528.39,146.16Z" transform="translate(-377.46 -121.72)"/><path class="cls-17" d="M553.29,142.6c.56-4.12,0-10.35.2-14.88,1.71.17,3.5.49,5.25.72-.35,2.83-.72,5.65-1.08,8.47,1.39-2.71,2.76-5.42,4.14-8.13,1.53.19,3.15.3,4.63.54-2.31,4.18-6.33,9.77-8.26,13.61s-1.72,5.95-3.17,9.47c-1.46,0-3.11,0-4.6.12C551.1,148.77,552.72,146.73,553.29,142.6Z" transform="translate(-377.46 -121.72)"/><path class="cls-18" d="M562.31,140.52c1.14-3.3,3.75-11.6,9.28-10.74s3.47,8,2.33,11.45-3.41,11.21-9.2,11S561.18,143.82,562.31,140.52Zm7.53.48c.32-1.05,2.28-5.64.27-5.94s-3,4.69-3.26,5.68-2.26,5.7-.22,5.87S569.52,142.06,569.84,141Z" transform="translate(-377.46 -121.72)"/><path class="cls-19" d="M574.33,143.92c.78-2.6,2.88-9.89,3.89-13.27a21.06,21.06,0,0,1,3.49.32c-1.19,4.12-2.8,9.66-3.86,13.37-.42,1.46-.65,2.16.46,2.24s1.4-.66,1.84-2.15c1.11-3.79,2.59-9.09,3.79-13.23a24.63,24.63,0,0,1,3.22.4c-1,3.31-2.65,9.74-3.54,12.45-1.32,4-2.41,7.86-6.9,7.86S573.22,147.62,574.33,143.92Z" transform="translate(-377.46 -121.72)"/><path class="cls-20" d="M588.38,131.65c1.92.45,2.82,0,5,.64s1.88,4.17,1.11,6.23c-.4,1.08-1.28,3.85-2.56,4.85-.1,2.76-.19,5.39-.28,8.1-1.08,0-2.15.06-3.23.09q.26-3.72.52-7.44l-.83,0c-.69,2.51-1.39,5-2.08,7.53l-3.23.09C584.64,145,586.55,138.37,588.38,131.65Zm1.71,8.17c1.09,0,1.41-.78,1.62-1.56s.34-1.39-.68-1.59c-.23,0-.61,0-.86-.07-.3,1.06-.59,2.12-.88,3.18C589.53,139.79,589.88,139.82,590.09,139.82Z" transform="translate(-377.46 -121.72)"/><path class="cls-21" d="M665.93,307.44v0h0S665.93,307.45,665.93,307.44Z" transform="translate(-377.46 -121.72)"/><path class="cls-21" d="M665.93,307.44v0h0S665.93,307.45,665.93,307.44Z" transform="translate(-377.46 -121.72)"/><path class="cls-21" d="M665.93,307.44v0h0S665.93,307.45,665.93,307.44Z" transform="translate(-377.46 -121.72)"/><path class="cls-21" d="M701.28,358.32l0,.15h.07C701.31,358.42,701.3,358.37,701.28,358.32Z" transform="translate(-377.46 -121.72)"/><path class="cls-21" d="M705.39,358l-.08.44h.22Zm-4.11.29,0,.15h.07C701.31,358.42,701.3,358.37,701.28,358.32Z" transform="translate(-377.46 -121.72)"/><path class="cls-21" d="M737,311.26h7.17l-2.62,15.27H722.6l-.29,1.73h18.31L738,343.54H719.68l-.64,3.65h20.33l-2.56,15.27h-46l-.77-3c-.21-.77-.9-3.07-3.08-9.65a21.31,21.31,0,0,0-2.07-4.83l-.23-.29a7,7,0,0,0-.76-.06l-3.08,17.86H665.38l2.57-15a30.08,30.08,0,0,1-1.16,3.54A20,20,0,0,1,660,360a18.1,18.1,0,0,1-10.76,3.16c-5,0-9.14-1.62-12.17-4.8s-4.48-7.32-4.48-12.45a55.59,55.59,0,0,1,1.09-8.63l1.82-10.79h-6.45l-6.19,35.93H607.44l6.19-35.93h-7.37l-6.18,35.93H587l-5.39-16.36-2.8,16.36h-48l4.86-28.41-12.82,28.41H509l-4.27-28.95a39.13,39.13,0,0,1-1.48,10.67,30.85,30.85,0,0,1-4.3,9.14,21.32,21.32,0,0,1-6.17,6.08,21,21,0,0,1-6.65,2.6,34.43,34.43,0,0,1-6.61.46H452l-1.15-9.53H443l-4.29,9.53h-16.4l23.79-51.2h14.15L465,346.77l6.08-35.51h12.88a35.1,35.1,0,0,1,7.67.51,15.41,15.41,0,0,1,7.13,4,19.23,19.23,0,0,1,4.48,7.29l-1.73-11.76h13.16l8.72-50.88h15.52a29.45,29.45,0,0,1,8.07.79,12.73,12.73,0,0,1,7.13,5.1,14,14,0,0,1,2.22,5.86l2.09-11.75H604.3l-1.94,12.35-16.62,23.6,2.3,0H597l16.69-35.93h14.15l4.72,35.52,6.08-35.52h19.11c3.61,0,6.35.53,8.4,1.63a12.42,12.42,0,0,1,5.16,5.39,14.24,14.24,0,0,1,1.22,3.28l1.76-10.3h19.12c3.61,0,6.36.53,8.41,1.63A12.48,12.48,0,0,1,707,267.4a14.75,14.75,0,0,1,1.19,3.17l1.74-10.19h34.4l-2.62,15.27H722.73l-.29,1.74h18.31l-2.61,15.28H719.81l-.64,3.64H739.5Z" transform="translate(-377.46 -121.72)"/><path class="cls-22" d="M519.94,307.44l7.33-42.81h12a26.56,26.56,0,0,1,6.86.62,8.61,8.61,0,0,1,4.9,3.47,10.92,10.92,0,0,1,1.73,6.28,11.24,11.24,0,0,1-1.67,6.3,10.22,10.22,0,0,1-5,3.86,8,8,0,0,1,4.16,3.15,9.18,9.18,0,0,1,1.56,5.32,15,15,0,0,1-1.88,7.5,11.33,11.33,0,0,1-4.9,4.83,20.08,20.08,0,0,1-8.57,1.48Zm8.38-6.89h7a18,18,0,0,0,5.62-.59,5.31,5.31,0,0,0,2.54-2.14,6.26,6.26,0,0,0,1-3.52,4.8,4.8,0,0,0-1.35-3.62,5.83,5.83,0,0,0-4.23-1.32h-8.65Zm3.21-18.63h5.52a16.44,16.44,0,0,0,5.2-.59,4.81,4.81,0,0,0,2.48-2,6,6,0,0,0,.9-3.27,4.55,4.55,0,0,0-.67-2.53,3.25,3.25,0,0,0-1.69-1.38,16.83,16.83,0,0,0-4.42-.35h-5.58Z" transform="translate(-377.46 -121.72)"/><path class="cls-22" d="M554.39,307.44,562,264.63h7.2l-7.61,42.81Z" transform="translate(-377.46 -121.72)"/><path class="cls-22" d="M568,307.44l1.17-6.75,20.21-28.9H573l1.23-7.16h25.31l-1,6.72L578,300.43l3.77-.09h1.14l5.21-.06h8.32l-1.23,7.16Z" transform="translate(-377.46 -121.72)"/><path class="cls-22" d="M621.75,298h-13.9l-4.26,9.46h-7.42l19.89-42.81h8l5.69,42.81h-6.84Zm-.92-7.13-2-17.22-7.76,17.22Z" transform="translate(-377.46 -121.72)"/><path class="cls-22" d="M641.5,307.44h-7.2l7.33-42.81h15.59a14.22,14.22,0,0,1,6.46,1.14,8.49,8.49,0,0,1,3.46,3.68,13.84,13.84,0,0,1,1.32,6.42c0,3.79-.92,6.83-2.78,9.12a12.33,12.33,0,0,1-8,4.24,19,19,0,0,1,2.86,4.57,120.67,120.67,0,0,1,5.12,13.64h-7.77q-.45-1.81-3.13-9.85a25,25,0,0,0-2.56-5.81,5,5,0,0,0-1.73-1.63,7.17,7.17,0,0,0-3-.44h-3Zm4.15-24.15h3.81q5.43,0,7.34-.69a6.42,6.42,0,0,0,3.18-2.52,7,7,0,0,0,1.27-4.06,4,4,0,0,0-1.6-3.53c-.63-.47-2-.7-4.09-.7h-7.93Z" transform="translate(-377.46 -121.72)"/><path class="cls-22" d="M676.89,307.44h-7.2L677,264.63h15.6a14.14,14.14,0,0,1,6.45,1.14,8.43,8.43,0,0,1,3.46,3.68,13.71,13.71,0,0,1,1.33,6.42q0,5.69-2.79,9.12a12.28,12.28,0,0,1-8,4.24,19,19,0,0,1,2.87,4.57A120.93,120.93,0,0,1,701,307.44h-7.76q-.46-1.81-3.13-9.85a25.49,25.49,0,0,0-2.56-5.81,5.09,5.09,0,0,0-1.73-1.63,7.23,7.23,0,0,0-3-.44h-2.95ZM681,283.29h3.8q5.43,0,7.35-.69a6.51,6.51,0,0,0,3.18-2.52,7,7,0,0,0,1.27-4.06,4,4,0,0,0-1.61-3.53c-.62-.47-2-.7-4.08-.7H683Z" transform="translate(-377.46 -121.72)"/><path class="cls-22" d="M705,307.44l7.33-42.81h26l-1.23,7.16H718.35l-1.68,9.72h18.19l-1.23,7.15H715.44l-2,11.62h20.19l-1.2,7.16Z" transform="translate(-377.46 -121.72)"/><path class="cls-22" d="M455.62,349h-13.9l-4.26,9.46H430l19.89-42.81h8l5.68,42.81h-6.84Zm-.92-7.13-2-17.22-7.76,17.22Z" transform="translate(-377.46 -121.72)"/><path class="cls-22" d="M468.18,358.44l7.32-42.81h9.41a35.78,35.78,0,0,1,6.71.41,11.15,11.15,0,0,1,5.17,2.89,15,15,0,0,1,3.5,5.77,25.78,25.78,0,0,1,1.29,8.66,34.86,34.86,0,0,1-1.32,9.82,25.94,25.94,0,0,1-3.69,7.88,17.16,17.16,0,0,1-4.92,4.91,16.57,16.57,0,0,1-5.31,2.09,31.61,31.61,0,0,1-5.79.38Zm8.37-6.89h3.66a19.35,19.35,0,0,0,5.61-.56,9,9,0,0,0,3.95-2.87,19.14,19.14,0,0,0,3.19-6.05,27.13,27.13,0,0,0,1.35-8.95,16,16,0,0,0-1.11-6.6,6.23,6.23,0,0,0-2.95-3.24,12.65,12.65,0,0,0-4.61-.58h-4.15Z" transform="translate(-377.46 -121.72)"/><path class="cls-22" d="M521,358.44h-7.73L507,315.63h7.21L518.64,348l14.51-32.38h7.14Z" transform="translate(-377.46 -121.72)"/><path class="cls-22" d="M536.2,358.44l7.33-42.81h26l-1.23,7.16H549.54l-1.68,9.72H566l-1.22,7.15H546.63l-2,11.62h20.19l-1.2,7.16Z" transform="translate(-377.46 -121.72)"/><path class="cls-22" d="M596.79,358.44h-6.71l-9.48-28.76-4.91,28.76H569l7.32-42.81H583l9.48,28.65,4.92-28.65h6.72Z" transform="translate(-377.46 -121.72)"/><path class="cls-22" d="M619.4,358.44h-7.2l6.14-35.65H607.79l1.23-7.16H636.9l-1.22,7.16H625.54Z" transform="translate(-377.46 -121.72)"/><path class="cls-22" d="M641.26,315.63h7.23l-4,23.25-1,5.61a10.09,10.09,0,0,0-.12,1.46,5.44,5.44,0,0,0,5.84,5.86,6.72,6.72,0,0,0,6.69-4.4,41.31,41.31,0,0,0,2-8.36l4.17-23.42h7.21L665.22,339a54.33,54.33,0,0,1-2.58,10.54,15.89,15.89,0,0,1-5.33,7.25,14.1,14.1,0,0,1-8.37,2.39q-5.82,0-9.17-3.52t-3.34-9.59a58.79,58.79,0,0,1,1-7.89Z" transform="translate(-377.46 -121.72)"/><path class="cls-22" d="M676.89,358.44h-7.2L677,315.63h15.6a14.14,14.14,0,0,1,6.45,1.14,8.43,8.43,0,0,1,3.46,3.68,13.71,13.71,0,0,1,1.33,6.42q0,5.69-2.79,9.12a12.28,12.28,0,0,1-8,4.24,19,19,0,0,1,2.87,4.57A120.93,120.93,0,0,1,701,358.44h-7.76q-.46-1.81-3.13-9.85a25.49,25.49,0,0,0-2.56-5.81,5.09,5.09,0,0,0-1.73-1.63,7.23,7.23,0,0,0-3-.44h-3ZM681,334.29h3.8q5.43,0,7.35-.69a6.51,6.51,0,0,0,3.18-2.52,7,7,0,0,0,1.27-4.06,4,4,0,0,0-1.61-3.53c-.62-.47-2-.7-4.08-.7H683Z" transform="translate(-377.46 -121.72)"/><path class="cls-22" d="M705,358.44l7.33-42.81h26l-1.23,7.16H718.35l-1.68,9.72h18.19l-1.23,7.15H715.44l-2,11.62h20.19l-1.2,7.16Z" transform="translate(-377.46 -121.72)"/><path class="cls-23" d="M601.71,394.9l6.37,1.15q-1.92,6.51-5.67,9.75a12.83,12.83,0,0,1-8.68,3.25,10.65,10.65,0,0,1-8.76-4q-3.24-4-3.24-12.12a29.67,29.67,0,0,1,2.36-12.2,18.41,18.41,0,0,1,6-7.85,13.44,13.44,0,0,1,7.89-2.57,10.87,10.87,0,0,1,8,3.15q3.18,3.15,3.75,9l-6.06.72a8.46,8.46,0,0,0-2-4.81,5.2,5.2,0,0,0-3.77-1.41,7.33,7.33,0,0,0-4.58,1.72,13,13,0,0,0-3.74,5.74,24.53,24.53,0,0,0-1.54,8.86c0,3,.59,5.33,1.79,6.94a5.24,5.24,0,0,0,4.34,2.42,6.52,6.52,0,0,0,4.49-1.9A11.75,11.75,0,0,0,601.71,394.9Z" transform="translate(-377.46 -121.72)"/><path class="cls-24" d="M612.42,393.68a32.92,32.92,0,0,1,1.64-10q2.07-6.58,6.14-10a14.19,14.19,0,0,1,9.41-3.42,11.48,11.48,0,0,1,9.14,4.22q3.6,4.22,3.6,11.5a28.77,28.77,0,0,1-2.57,12.17,19.92,19.92,0,0,1-6.38,8.23,14.37,14.37,0,0,1-8.39,2.66,10.83,10.83,0,0,1-8.72-3.84A17.1,17.1,0,0,1,612.42,393.68Zm6.27-.15a10.07,10.07,0,0,0,2,6.6,6.2,6.2,0,0,0,4.95,2.47,7.43,7.43,0,0,0,4.66-1.84,14.62,14.62,0,0,0,4-6,22.67,22.67,0,0,0,1.7-8.55,11.09,11.09,0,0,0-2.1-7.15,5.86,5.86,0,0,0-4.83-2.3,7.66,7.66,0,0,0-4.76,1.86,14.19,14.19,0,0,0-4,6A23.87,23.87,0,0,0,618.69,393.53Z" transform="translate(-377.46 -121.72)"/><path class="cls-25" d="M659.27,408.41H652.5L647,370.91h6.31l3.93,28.37,12.71-28.37h6.25Z" transform="translate(-377.46 -121.72)"/><path class="cls-26" d="M672.6,408.41l6.42-37.5h22.79l-1.07,6.27H684.28l-1.47,8.52h15.93L697.67,392H681.73L680,402.14h17.69l-1,6.27Z" transform="translate(-377.46 -121.72)"/><path class="cls-27" d="M707.6,408.41h-6.3l6.41-37.5h13.67a12.49,12.49,0,0,1,5.65,1,7.42,7.42,0,0,1,3,3.22,14.26,14.26,0,0,1-1.28,13.61,10.83,10.83,0,0,1-7,3.72,16.81,16.81,0,0,1,2.5,4,105.11,105.11,0,0,1,4.48,12H722q-.41-1.59-2.74-8.62A21.89,21.89,0,0,0,717,394.7a4.27,4.27,0,0,0-1.52-1.43,6.18,6.18,0,0,0-2.59-.39h-2.59Zm3.64-21.15h3.33a21.94,21.94,0,0,0,6.43-.61,5.63,5.63,0,0,0,2.79-2.21,6.12,6.12,0,0,0,1.11-3.55,3.49,3.49,0,0,0-1.4-3.1c-.55-.41-1.74-.61-3.58-.61H713Z" transform="translate(-377.46 -121.72)"/></svg>